<?xml version="1.0" encoding="UTF-8" standalone="no"?>
<!-- Created with Inkscape (http://www.inkscape.org/) -->

<svg
   xmlns:dc="http://purl.org/dc/elements/1.1/"
   xmlns:cc="http://creativecommons.org/ns#"
   xmlns:rdf="http://www.w3.org/1999/02/22-rdf-syntax-ns#"
   xmlns:svg="http://www.w3.org/2000/svg"
   xmlns="http://www.w3.org/2000/svg"
   xmlns:sodipodi="http://sodipodi.sourceforge.net/DTD/sodipodi-0.dtd"
   xmlns:inkscape="http://www.inkscape.org/namespaces/inkscape"
   width="250"
   height="230"
   id="svg2"
   version="1.1"
   inkscape:version="0.48.3.1 r9886"
   sodipodi:docname="Kernschatten und Halbschatten.svg">
  <defs
     id="defs4" />
  <sodipodi:namedview
     id="base"
     pagecolor="#ffffff"
     bordercolor="#666666"
     borderopacity="1.0"
     inkscape:pageopacity="0.0"
     inkscape:pageshadow="2"
     inkscape:zoom="2.8810317"
     inkscape:cx="123.1203"
     inkscape:cy="119.62346"
     inkscape:document-units="px"
     inkscape:current-layer="layer1"
     showgrid="false"
     inkscape:window-width="1551"
     inkscape:window-height="876"
     inkscape:window-x="49"
     inkscape:window-y="24"
     inkscape:window-maximized="1"
     fit-margin-top="0"
     fit-margin-left="0"
     fit-margin-right="0"
     fit-margin-bottom="0" />
  <metadata
     id="metadata7">
    <rdf:RDF>
      <cc:Work
         rdf:about="">
        <dc:format>image/svg+xml</dc:format>
        <dc:type
           rdf:resource="http://purl.org/dc/dcmitype/StillImage" />
        <dc:title></dc:title>
      </cc:Work>
    </rdf:RDF>
  </metadata>
  <g
     inkscape:label="Ebene 1"
     inkscape:groupmode="layer"
     id="layer1"
     transform="translate(-108.26337,-47.90625)">
    <path
       style="fill:#4d4d4d;fill-opacity:1;stroke:none"
       d="m 255.11694,125.95794 0,75.32025 97.53451,-12.42396 0,-51.24883 z"
       id="path3932"
       inkscape:connector-curvature="0" />
    <path
       style="fill:#b3b3b3;fill-opacity:1;stroke:none"
       d="m 256.50535,200.20776 96.4932,-11.77221 1.0413,77.05574 z"
       id="path3930"
       inkscape:connector-curvature="0"
       sodipodi:nodetypes="cccc" />
    <path
       style="fill:#b3b3b3;fill-opacity:1;stroke:none"
       d="m 254.76984,127.66069 97.88161,10.44568 0,-76.361535 z"
       id="path3928"
       inkscape:connector-curvature="0" />
    <path
       style="fill:none;stroke:#000000;stroke-width:1;stroke-linecap:butt;stroke-linejoin:miter;stroke-miterlimit:4;stroke-opacity:1;stroke-dasharray:6, 6;stroke-dashoffset:0"
       d="M 353.23894,265.00395 124.80815,112.71676 354.13474,138.69516"
       id="path3825"
       inkscape:connector-curvature="0"
       sodipodi:nodetypes="ccc" />
    <path
       sodipodi:type="arc"
       style="fill:#ffffff;fill-opacity:1;stroke:#070101;stroke-width:4.48836899;stroke-linecap:butt;stroke-linejoin:miter;stroke-miterlimit:4;stroke-opacity:1;stroke-dasharray:none;stroke-dashoffset:0"
       id="path2989"
       sodipodi:cx="123.44112"
       sodipodi:cy="121.57637"
       sodipodi:rx="19.909857"
       sodipodi:ry="19.909857"
       d="m 143.35097,121.57637 a 19.909857,19.909857 0 1 1 -39.81971,0 19.909857,19.909857 0 1 1 39.81971,0 z"
       transform="matrix(0.66839424,0,0,0.66839424,42.650149,31.977713)" />
    <path
       style="fill:none;stroke:#000000;stroke-width:1;stroke-linecap:butt;stroke-linejoin:miter;stroke-miterlimit:4;stroke-opacity:1;stroke-dasharray:6, 6;stroke-dashoffset:0"
       d="M 353.23893,60.759953 C 349.65571,62.551567 124.80815,215.73456 124.80815,215.73456 l 229.32659,-27.77001"
       id="path3827"
       inkscape:connector-curvature="0"
       sodipodi:nodetypes="ccc" />
    <path
       style="fill:#999999;fill-opacity:0;stroke:none"
       d="m 304.01318,132.45787 c -25.88492,-2.93997 -47.16685,-5.40325 -47.29318,-5.47395 -0.18343,-0.10264 6.01911,-4.36981 30.78914,-21.18204 31.75845,-21.555503 51.6814,-35.032813 59.58406,-40.306923 l 4.46012,-2.976617 0,37.65672 c 0,35.77818 -0.0119,37.65601 -0.23833,37.64247 -0.13108,-0.008 -21.41689,-2.41968 -47.30181,-5.35966 l 0,0 z"
       id="path3859"
       inkscape:connector-curvature="0" />
    <path
       style="fill:#b3b3b3;fill-opacity:0;stroke:none"
       d="m 304.01318,132.45787 c -25.88492,-2.93997 -47.16685,-5.40325 -47.29318,-5.47395 -0.18343,-0.10264 6.01911,-4.36981 30.78914,-21.18204 31.75845,-21.555503 51.6814,-35.032813 59.58406,-40.306923 l 4.46012,-2.976617 0,37.65672 c 0,35.77818 -0.0119,37.65601 -0.23833,37.64247 -0.13108,-0.008 -21.41689,-2.41968 -47.30181,-5.35966 l 0,0 z"
       id="path3861"
       inkscape:connector-curvature="0" />
    <path
       style="fill:#b3b3b3;fill-opacity:0;stroke:none"
       d="m 304.34771,231.69864 -47.13753,-31.42513 47.108,-5.70398 c 25.9094,-3.13719 47.13672,-5.67526 47.17182,-5.64016 0.0351,0.0351 0.0484,16.7432 0.0295,37.12911 l -0.0343,37.06529 -47.13752,-31.42513 z"
       id="path3865"
       inkscape:connector-curvature="0" />
    <path
       style="fill:#000000;fill-opacity:0;stroke:none"
       d="m 304.01318,132.45787 c -25.88492,-2.93997 -47.16685,-5.40325 -47.29318,-5.47395 -0.18343,-0.10264 6.01918,-4.36973 30.78914,-21.1814 17.06036,-11.579064 34.24998,-23.235369 38.19916,-25.902893 l 7.18032,-4.850044 9.33235,0 9.33235,0 0,31.391097 c 0,29.81092 -0.012,31.39038 -0.23833,31.37685 -0.13108,-0.008 -21.41689,-2.41968 -47.30181,-5.35966 z"
       id="path3888"
       inkscape:connector-curvature="0" />
    <path
       style="fill:none;stroke:#000000;stroke-width:1px;stroke-linecap:butt;stroke-linejoin:miter;stroke-opacity:1"
       d="m 115.52533,122.90656 18.97991,-18.97991 0.39192,0.39191"
       id="path3759"
       inkscape:connector-curvature="0" />
    <path
       style="fill:none;stroke:#000000;stroke-width:1px;stroke-linecap:butt;stroke-linejoin:miter;stroke-opacity:1"
       d="m 115.77727,103.59072 18.97991,18.97991 -0.39191,0.39192"
       id="path3759-0"
       inkscape:connector-curvature="0" />
    <path
       sodipodi:type="arc"
       style="fill:#ffffff;fill-opacity:1;stroke:#070101;stroke-width:4.48836899;stroke-linecap:butt;stroke-linejoin:miter;stroke-miterlimit:4;stroke-opacity:1;stroke-dasharray:none;stroke-dashoffset:0"
       id="path2989-4"
       sodipodi:cx="123.44112"
       sodipodi:cy="121.57637"
       sodipodi:rx="19.909857"
       sodipodi:ry="19.909857"
       d="m 143.35097,121.57637 a 19.909857,19.909857 0 1 1 -39.81971,0 19.909857,19.909857 0 1 1 39.81971,0 z"
       transform="matrix(0.66839424,0,0,0.66839424,43.836297,134.94245)" />
    <path
       style="fill:none;stroke:#000000;stroke-width:1px;stroke-linecap:butt;stroke-linejoin:miter;stroke-opacity:1"
       d="m 116.71147,225.8713 18.97991,-18.97991 0.39192,0.39191"
       id="path3759-6"
       inkscape:connector-curvature="0" />
    <path
       style="fill:none;stroke:#000000;stroke-width:1px;stroke-linecap:butt;stroke-linejoin:miter;stroke-opacity:1"
       d="m 116.96341,206.55546 18.97991,18.97991 -0.39191,0.39192"
       id="path3759-0-4"
       inkscape:connector-curvature="0" />
    <path
       style="fill:none;stroke:#000000;stroke-width:4;stroke-linecap:butt;stroke-linejoin:miter;stroke-miterlimit:4;stroke-opacity:1;stroke-dasharray:none"
       d="m 354.38694,50.208018 0,225.960722"
       id="path3958"
       inkscape:connector-curvature="0" />
    <path
       style="fill:none;stroke:#000000;stroke-width:3.99999976;stroke-linecap:butt;stroke-linejoin:miter;stroke-miterlimit:4;stroke-opacity:1;stroke-dasharray:none"
       d="m 257.11694,126.49673 0,74.17828"
       id="path3958-3"
       inkscape:connector-curvature="0" />
    <g
       style="font-size:14px;font-style:normal;font-variant:normal;font-weight:normal;font-stretch:normal;text-align:start;line-height:125%;letter-spacing:0px;word-spacing:0px;writing-mode:lr-tb;text-anchor:start;fill:#000000;fill-opacity:1;stroke:none;font-family:Liberation Sans;-inkscape-font-specification:Liberation Sans"
       id="text3978"
       transform="translate(2.0825873,-1.7354894)">
      <path
         d="m 309.59988,173.85744 -2.20117,-5.63282 -8.77734,0 -2.21485,5.63282 -2.70703,0 7.86133,-19.26367 2.9668,0 7.73828,19.26367 -2.66602,0 m -5.45507,-14.02735 c -0.14585,-0.36457 -0.28712,-0.73371 -0.42383,-1.10742 -0.12762,-0.37368 -0.24155,-0.71092 -0.3418,-1.01172 -0.10027,-0.30988 -0.18686,-0.56508 -0.25976,-0.76562 -0.0638,-0.20962 -0.10027,-0.33722 -0.10938,-0.38281 -0.0182,0.0456 -0.0593,0.17319 -0.12305,0.38281 -0.0638,0.20965 -0.1504,0.46942 -0.25976,0.77929 -0.10027,0.30992 -0.21876,0.65171 -0.35547,1.0254 -0.12761,0.37371 -0.25977,0.74285 -0.39649,1.10742 l -2.46093,6.33008 7.20508,0 -2.47461,-6.35743"
         style="font-size:28px"
         id="path4142"
         inkscape:connector-curvature="0" />
    </g>
    <g
       style="font-size:14px;font-style:normal;font-variant:normal;font-weight:normal;font-stretch:normal;text-align:start;line-height:125%;letter-spacing:0px;word-spacing:0px;writing-mode:lr-tb;text-anchor:start;fill:#000000;fill-opacity:1;stroke:none;font-family:Liberation Sans;-inkscape-font-specification:Liberation Sans"
       id="text3978-1"
       transform="translate(2.0825873,-1.7354894)">
      <path
         d="m 327.53848,113.84844 c -10e-6,0.97527 -0.19142,1.80925 -0.57422,2.50196 -0.38282,0.68359 -0.8978,1.24414 -1.54492,1.68164 -0.64715,0.42838 -1.3991,0.74283 -2.25586,0.94336 -0.85678,0.20052 -1.75912,0.30078 -2.70703,0.30078 l -7.82031,0 0,-19.26368 7,0 c 1.06639,2e-5 2.01887,0.0912 2.85742,0.27344 0.83853,0.1732 1.54947,0.45119 2.13281,0.83399 0.58332,0.38283 1.02538,0.87046 1.32618,1.46289 0.30988,0.58335 0.46482,1.28517 0.46484,2.10547 -2e-5,0.53777 -0.0775,1.04363 -0.23242,1.51757 -0.14585,0.47397 -0.37372,0.90692 -0.6836,1.29883 -0.30079,0.38283 -0.6836,0.71551 -1.14843,0.99805 -0.45575,0.27345 -0.98895,0.47852 -1.59961,0.61523 0.77472,0.0912 1.45832,0.26889 2.05078,0.53321 0.60155,0.26433 1.10285,0.60157 1.5039,1.01172 0.40103,0.41016 0.70637,0.88867 0.91602,1.43554 0.20962,0.53777 0.31444,1.1211 0.31445,1.75 m -3.74609,-8.8457 c -1e-5,-1.03905 -0.35548,-1.78189 -1.06641,-2.22852 -0.71095,-0.44659 -1.74089,-0.6699 -3.08984,-0.66992 l -4.38867,0 0,6.09766 4.38867,0 c 0.76561,1e-5 1.41275,-0.0729 1.94141,-0.21875 0.52863,-0.15494 0.95701,-0.36913 1.28515,-0.64258 0.32811,-0.28254 0.56509,-0.61978 0.71094,-1.01172 0.14582,-0.39191 0.21874,-0.83397 0.21875,-1.32617 m 1.10742,8.64062 c -10e-6,-0.61067 -0.11395,-1.1302 -0.3418,-1.55859 -0.21876,-0.42838 -0.53777,-0.77929 -0.95703,-1.05273 -0.41928,-0.27343 -0.92514,-0.47395 -1.51758,-0.60157 -0.58334,-0.12759 -1.23959,-0.19139 -1.96875,-0.1914 l -4.86718,0 0,6.94531 5.07226,0 c 0.66536,0 1.27603,-0.0547 1.83203,-0.16406 0.5651,-0.10938 1.04817,-0.30078 1.44922,-0.57422 0.41015,-0.27344 0.72916,-0.63802 0.95703,-1.09375 0.22785,-0.45573 0.34179,-1.02539 0.3418,-1.70899"
         style="font-size:28px"
         id="path4148"
         inkscape:connector-curvature="0" />
    </g>
    <g
       style="font-size:14px;font-style:normal;font-variant:normal;font-weight:normal;font-stretch:normal;text-align:start;line-height:125%;letter-spacing:0px;word-spacing:0px;writing-mode:lr-tb;text-anchor:start;fill:#000000;fill-opacity:1;stroke:none;font-family:Liberation Sans;-inkscape-font-specification:Liberation Sans"
       id="text3978-1-3"
       transform="translate(2.0825873,-1.7354894)">
      <path
         d="m 329.21091,223.18428 c -2e-5,0.97527 -0.19143,1.80925 -0.57422,2.50195 -0.38283,0.6836 -0.8978,1.24415 -1.54492,1.68164 -0.64715,0.42839 -1.39911,0.74284 -2.25586,0.94336 -0.85679,0.20052 -1.75913,0.30078 -2.70703,0.30078 l -7.82032,0 0,-19.26367 7,0 c 1.0664,2e-5 2.01887,0.0912 2.85743,0.27344 0.83852,0.1732 1.54946,0.45119 2.13281,0.83398 0.58332,0.38284 1.02537,0.87046 1.32617,1.4629 0.30988,0.58334 0.46483,1.28517 0.46484,2.10546 -10e-6,0.53778 -0.0775,1.04364 -0.23242,1.51758 -0.14585,0.47397 -0.37371,0.90692 -0.68359,1.29883 -0.3008,0.38282 -0.68361,0.71551 -1.14844,0.99805 -0.45574,0.27345 -0.98895,0.47852 -1.59961,0.61523 0.77473,0.0912 1.45832,0.26889 2.05078,0.5332 0.60155,0.26434 1.10285,0.60158 1.50391,1.01172 0.40102,0.41017 0.70636,0.88868 0.91601,1.43555 0.20962,0.53777 0.31444,1.1211 0.31446,1.75 m -3.7461,-8.8457 c -10e-6,-1.03905 -0.35548,-1.78189 -1.0664,-2.22852 -0.71095,-0.4466 -1.7409,-0.6699 -3.08985,-0.66992 l -4.38867,0 0,6.09766 4.38867,0 c 0.76562,1e-5 1.41275,-0.0729 1.94141,-0.21875 0.52863,-0.15494 0.95702,-0.36913 1.28516,-0.64258 0.32811,-0.28254 0.56509,-0.61978 0.71093,-1.01172 0.14582,-0.39191 0.21874,-0.83397 0.21875,-1.32617 m 1.10743,8.64062 c -2e-5,-0.61067 -0.11395,-1.1302 -0.3418,-1.55859 -0.21877,-0.42838 -0.53778,-0.77929 -0.95703,-1.05274 -0.41929,-0.27342 -0.92515,-0.47395 -1.51758,-0.60156 -0.58335,-0.12759 -1.23959,-0.1914 -1.96875,-0.1914 l -4.86719,0 0,6.94531 5.07227,0 c 0.66535,0 1.27603,-0.0547 1.83203,-0.16406 0.56509,-0.10938 1.04816,-0.30078 1.44922,-0.57422 0.41014,-0.27344 0.72915,-0.63802 0.95703,-1.09375 0.22785,-0.45573 0.34178,-1.02539 0.3418,-1.70899"
         style="font-size:28px"
         id="path4145"
         inkscape:connector-curvature="0" />
    </g>
    <g
       style="font-size:14px;font-style:normal;font-variant:normal;font-weight:normal;font-stretch:normal;text-align:start;line-height:125%;letter-spacing:0px;word-spacing:0px;writing-mode:lr-tb;text-anchor:start;fill:#000000;fill-opacity:1;stroke:none;font-family:Liberation Sans;-inkscape-font-specification:Liberation Sans"
       id="text3978-1-36-9"
       transform="translate(2.0825873,-1.7354894)">
      <path
         d="m 140.21959,108.52298 0,-19.263672 2.61133,0 0,17.130862 9.73437,0 0,2.13281 -12.3457,0"
         style="font-size:28px"
         id="path4154"
         inkscape:connector-curvature="0" />
    </g>
    <g
       style="font-size:14px;font-style:normal;font-variant:normal;font-weight:normal;font-stretch:normal;text-align:start;line-height:125%;letter-spacing:0px;word-spacing:0px;writing-mode:lr-tb;text-anchor:start;fill:#000000;fill-opacity:1;stroke:none;font-family:Liberation Sans;-inkscape-font-specification:Liberation Sans"
       id="text3978-1-36-9-5"
       transform="translate(2.0825873,-1.7354894)">
      <path
         d="m 143.07924,240.41335 0,-19.26368 2.61133,0 0,17.13086 9.73437,0 0,2.13282 -12.3457,0"
         style="font-size:28px"
         id="path4160"
         inkscape:connector-curvature="0" />
    </g>
    <g
       style="font-size:14px;font-style:normal;font-variant:normal;font-weight:normal;font-stretch:normal;text-align:start;line-height:125%;letter-spacing:0px;word-spacing:0px;writing-mode:lr-tb;text-anchor:start;fill:#000000;fill-opacity:1;stroke:none;font-family:Liberation Sans;-inkscape-font-specification:Liberation Sans"
       id="text3978-1-36-9-6"
       transform="translate(2.0825873,-1.7354894)">
      <path
         d="m 153.41293,114.06971 0,-1.49414 3.50586,0 0,-10.58594 -3.10547,2.2168 0,-1.66016 3.25196,-2.23633 1.62109,0 0,12.26563 3.34961,0 0,1.49414 -8.62305,0"
         style="font-size:20px"
         id="path4151"
         inkscape:connector-curvature="0" />
    </g>
    <g
       style="font-size:14px;font-style:normal;font-variant:normal;font-weight:normal;font-stretch:normal;text-align:start;line-height:125%;letter-spacing:0px;word-spacing:0px;writing-mode:lr-tb;text-anchor:start;fill:#000000;fill-opacity:1;stroke:none;font-family:Liberation Sans;-inkscape-font-specification:Liberation Sans"
       id="text3978-1-36-9-6-7"
       transform="translate(2.0825873,-1.7354894)">
      <path
         d="m 156.57141,247.38011 0,-1.24023 c 0.33203,-0.76172 0.73568,-1.43229 1.21094,-2.01172 0.48177,-0.58594 0.98632,-1.11328 1.51367,-1.58203 0.52734,-0.47526 1.04817,-0.91471 1.5625,-1.31836 0.52083,-0.40364 0.98958,-0.80729 1.40625,-1.21094 0.41666,-0.40364 0.75195,-0.82681 1.00586,-1.26953 0.26041,-0.4427 0.39062,-0.944 0.39062,-1.50391 0,-0.39061 -0.0586,-0.73241 -0.17578,-1.02539 -0.11719,-0.29947 -0.28646,-0.55012 -0.50781,-0.75195 -0.22136,-0.20181 -0.48829,-0.35155 -0.80078,-0.44922 -0.306,-0.10415 -0.64779,-0.15624 -1.02539,-0.15625 -0.35157,1e-5 -0.6836,0.0488 -0.99609,0.14648 -0.306,0.0977 -0.57944,0.24416 -0.82032,0.43946 -0.24089,0.19532 -0.43945,0.43946 -0.5957,0.73242 -0.14974,0.28647 -0.2474,0.62176 -0.29297,1.00586 l -1.79687,-0.16602 c 0.0586,-0.49478 0.19531,-0.96027 0.41015,-1.39648 0.21484,-0.43619 0.51107,-0.81705 0.88867,-1.14258 0.37761,-0.33202 0.83008,-0.59243 1.35743,-0.78125 0.53385,-0.18879 1.14908,-0.28319 1.8457,-0.2832 0.68359,1e-5 1.29231,0.0814 1.82617,0.24414 0.53385,0.16277 0.98307,0.40366 1.34766,0.72265 0.37108,0.31903 0.65428,0.71291 0.84961,1.18165 0.1953,0.46876 0.29296,1.00912 0.29297,1.62109 -10e-6,0.46225 -0.0846,0.9017 -0.25391,1.31836 -0.16277,0.41667 -0.38412,0.81381 -0.66406,1.1914 -0.27345,0.37762 -0.59246,0.7422 -0.95703,1.09375 -0.3646,0.35157 -0.74545,0.69663 -1.14258,1.03516 -0.39714,0.33204 -0.79753,0.66407 -1.20117,0.99609 -0.40366,0.32553 -0.78451,0.65431 -1.14258,0.98633 -0.35157,0.33204 -0.66732,0.67058 -0.94727,1.01563 -0.27995,0.33854 -0.49805,0.69336 -0.6543,1.06445 l 7.17774,0 0,1.49414 -9.11133,0"
         style="font-size:20px"
         id="path4157"
         inkscape:connector-curvature="0" />
    </g>
  </g>
</svg>
